<?xml version="1.0" encoding="UTF-8" standalone="no"?>
<!DOCTYPE svg PUBLIC "-//W3C//DTD SVG 1.1//EN" "http://www.w3.org/Graphics/SVG/1.1/DTD/svg11.dtd">
<svg version="1.1" xmlns="http://www.w3.org/2000/svg" xmlns:xlink="http://www.w3.org/1999/xlink" preserveAspectRatio="xMidYMid meet" viewBox="0 0 640 640" width="640" height="640"><defs><path d="M334.37 21.34L335.05 21.39L335.73 21.48L336.39 21.59L337.05 21.72L337.71 21.88L338.35 22.07L338.99 22.28L339.61 22.51L340.23 22.77L340.84 23.05L341.44 23.35L342.03 23.68L342.61 24.03L343.18 24.4L343.73 24.79L344.28 25.2L344.81 25.63L345.34 26.08L345.85 26.55L346.34 27.05L346.83 27.56L347.3 28.09L347.76 28.63L348.2 29.2L348.63 29.78L349.04 30.38L349.44 31L349.83 31.63L350.2 32.28L350.55 32.94L350.89 33.62L351.21 34.31L351.51 35.02L351.8 35.74L352.06 36.48L352.31 37.22L352.55 37.99L352.76 38.76L412.04 57.92L412.27 58L412.49 58.08L412.71 58.18L412.92 58.28L413.13 58.39L413.34 58.51L413.54 58.63L413.74 58.76L413.94 58.9L414.13 59.05L414.31 59.21L414.49 59.37L414.67 59.53L414.84 59.71L415.01 59.88L415.17 60.07L415.32 60.26L415.47 60.46L415.62 60.66L415.76 60.87L415.89 61.08L416.02 61.3L416.14 61.52L416.26 61.74L416.37 61.98L416.48 62.21L416.57 62.45L416.67 62.69L416.75 62.94L416.83 63.19L416.9 63.44L416.97 63.7L417.02 63.96L417.08 64.23L417.12 64.49L417.16 64.76L417.19 65.03L417.21 65.3L417.22 65.58L417.23 65.86L418.11 151.49L418.11 151.66L418.11 151.82L418.1 151.99L418.09 152.16L418.08 152.32L418.07 152.49L418.05 152.65L418.03 152.82L418.01 152.98L417.99 153.14L417.96 153.3L417.93 153.46L417.9 153.62L417.86 153.78L417.83 153.94L417.79 154.09L417.74 154.25L417.7 154.4L417.65 154.56L417.6 154.71L417.55 154.86L417.49 155.01L417.44 155.16L417.38 155.3L417.32 155.45L417.25 155.59L417.18 155.73L417.11 155.87L417.04 156.01L416.97 156.15L416.89 156.28L416.82 156.42L416.73 156.55L416.65 156.68L416.57 156.81L416.48 156.93L416.39 157.06L416.3 157.18L416.21 157.3L416.11 157.42L416.08 157.46L416.05 157.5L416.01 157.54L415.98 157.57L415.95 157.61L415.91 157.65L415.88 157.69L415.84 157.73L415.81 157.76L415.78 157.8L415.74 157.84L415.71 157.87L415.67 157.91L415.63 157.95L415.6 157.98L415.56 158.02L415.53 158.05L415.49 158.09L415.45 158.12L415.42 158.15L415.38 158.19L415.34 158.22L415.31 158.26L415.27 158.29L415.23 158.32L415.19 158.36L415.16 158.39L415.12 158.42L415.08 158.45L415.04 158.48L415 158.51L414.96 158.55L414.92 158.58L414.88 158.61L414.84 158.64L414.8 158.67L414.76 158.7L414.72 158.73L414.68 158.76L414.64 158.79L355.4 200.07L356.11 268.62L356.16 268.67L356.2 268.71L356.25 268.75L356.29 268.79L356.34 268.84L356.39 268.88L356.43 268.92L356.48 268.96L356.52 269L356.57 269.05L356.62 269.09L356.66 269.13L356.71 269.17L356.8 269.25L356.85 269.3L356.9 269.34L356.94 269.38L356.99 269.42L357.04 269.46L357.08 269.5L357.13 269.55L357.17 269.59L357.22 269.63L357.27 269.67L357.31 269.72L357.36 269.76L357.4 269.8L357.45 269.85L357.49 269.89L357.54 269.93L357.58 269.98L357.63 270.02L357.67 270.07L357.71 270.12L357.76 270.16L357.8 270.21L357.85 270.26L357.89 270.31L357.93 270.35L358.28 270.77L358.62 271.19L358.96 271.61L359.28 272.05L359.6 272.49L359.91 272.93L360.21 273.38L360.51 273.84L360.8 274.3L361.07 274.77L361.34 275.25L361.6 275.73L361.86 276.21L362.1 276.7L362.34 277.2L362.57 277.7L362.79 278.21L363 278.72L363.2 279.23L363.39 279.75L363.58 280.27L363.75 280.8L363.92 281.33L364.08 281.87L364.23 282.41L364.37 282.95L364.5 283.5L364.62 284.05L364.74 284.6L364.84 285.16L364.94 285.72L365.02 286.29L365.1 286.85L365.17 287.42L365.22 287.99L365.27 288.57L365.31 289.14L365.34 289.72L365.36 290.3L365.37 290.88L365.68 320.58L306.46 321.44L306.16 291.74L306.16 291.09L306.17 290.45L306.2 289.81L306.24 289.17L306.29 288.54L306.36 287.9L306.43 287.27L306.52 286.65L306.63 286.03L306.74 285.41L306.87 284.8L307.01 284.19L307.16 283.58L307.32 282.99L307.49 282.39L307.67 281.8L307.87 281.21L308.07 280.64L308.29 280.06L308.52 279.49L308.75 278.93L309 278.37L309.25 277.82L309.52 277.28L309.8 276.74L310.08 276.21L310.37 275.68L310.68 275.17L310.99 274.66L311.31 274.15L311.64 273.66L311.98 273.17L312.32 272.69L312.67 272.22L313.04 271.76L313.4 271.3L313.78 270.86L314.16 270.42L314.56 269.99L314.95 269.57L314.25 200.67L254.19 161.12L254.02 161.01L253.86 160.89L253.7 160.77L253.55 160.65L253.4 160.52L253.25 160.38L253.1 160.24L252.96 160.1L252.83 159.96L252.69 159.81L252.56 159.65L252.44 159.49L252.31 159.33L252.19 159.17L252.08 159L251.97 158.82L251.86 158.65L251.76 158.47L251.66 158.29L251.56 158.1L251.47 157.91L251.38 157.72L251.3 157.53L251.22 157.33L251.14 157.14L251.07 156.94L251.01 156.73L250.95 156.53L250.89 156.32L250.84 156.11L250.79 155.9L250.74 155.68L250.71 155.47L250.67 155.25L250.64 155.04L250.62 154.82L250.6 154.59L250.58 154.37L250.57 154.15L250.57 153.92L249.69 68.29L249.69 68.01L249.7 67.73L249.72 67.46L249.74 67.18L249.77 66.91L249.81 66.65L249.85 66.38L249.91 66.12L249.97 65.86L250.03 65.6L250.11 65.35L250.19 65.1L250.27 64.85L250.36 64.61L250.46 64.37L250.57 64.14L250.68 63.91L250.8 63.68L250.92 63.46L251.05 63.24L251.19 63.03L251.33 62.83L251.47 62.63L251.63 62.43L251.78 62.24L251.95 62.06L252.11 61.88L252.29 61.71L252.46 61.54L252.65 61.38L252.83 61.23L253.02 61.09L253.22 60.95L253.42 60.82L253.63 60.69L253.83 60.58L254.05 60.47L254.26 60.37L254.48 60.28L254.71 60.19L313.67 39.3L313.88 38.51L314.11 37.73L314.35 36.96L314.61 36.21L314.89 35.48L315.19 34.76L315.5 34.05L315.83 33.36L316.18 32.68L316.54 32.02L316.92 31.38L317.31 30.75L317.71 30.14L318.14 29.55L318.57 28.97L319.02 28.41L319.48 27.87L319.96 27.35L320.45 26.85L320.95 26.37L321.46 25.9L321.98 25.46L322.52 25.04L323.06 24.63L323.62 24.25L324.19 23.89L324.76 23.55L325.35 23.24L325.94 22.95L326.55 22.67L327.16 22.43L327.78 22.2L328.41 22L329.04 21.83L329.68 21.68L330.33 21.55L330.99 21.45L331.65 21.37L332.32 21.32L332.99 21.3L333.68 21.31L334.37 21.34ZM332.63 38.03L332.36 38.06L332.11 38.11L331.85 38.17L331.6 38.24L331.36 38.33L331.12 38.42L330.88 38.53L330.65 38.64L330.43 38.77L330.21 38.91L330 39.06L329.79 39.21L329.59 39.38L329.39 39.56L329.2 39.75L329.02 39.95L328.84 40.15L328.67 40.37L328.5 40.59L328.34 40.82L328.19 41.06L328.04 41.31L327.9 41.56L327.77 41.83L327.65 42.1L327.53 42.38L327.42 42.66L327.32 42.95L327.23 43.25L327.14 43.55L327.06 43.87L326.99 44.18L326.93 44.5L326.87 44.83L326.83 45.16L326.79 45.5L326.76 45.85L326.74 46.19L328.28 195.62L328.28 195.63L328.28 195.64L328.28 195.65L328.28 195.66L328.28 195.66L328.97 262.4L329.01 262.4L329.05 262.39L329.08 262.39L329.12 262.38L329.16 262.38L329.2 262.37L329.24 262.37L329.27 262.36L329.31 262.35L329.35 262.35L329.39 262.34L329.43 262.33L329.46 262.33L329.5 262.32L329.54 262.31L329.58 262.3L329.65 262.29L329.69 262.28L329.73 262.28L329.77 262.27L329.81 262.26L329.84 262.26L329.88 262.25L329.92 262.24L329.96 262.24L329.99 262.23L330.03 262.22L330.07 262.22L330.11 262.21L330.15 262.21L330.19 262.2L330.22 262.2L330.26 262.2L330.3 262.19L330.34 262.19L330.38 262.19L330.42 262.19L330.46 262.18L330.49 262.18L340.45 262.04L340.48 262.04L340.52 262.04L340.56 262.04L340.6 262.04L340.64 262.04L340.68 262.04L340.72 262.05L340.75 262.05L340.79 262.05L340.83 262.06L340.87 262.06L340.91 262.06L340.94 262.07L340.98 262.07L341.02 262.08L341.06 262.08L341.1 262.09L341.14 262.09L341.17 262.1L341.21 262.1L341.25 262.11L341.29 262.11L341.4 262.13L341.44 262.13L341.48 262.14L341.52 262.14L341.55 262.15L341.59 262.15L341.63 262.16L341.67 262.16L341.71 262.17L341.75 262.17L341.79 262.18L341.82 262.18L341.86 262.18L341.9 262.19L341.94 262.19L341.98 262.19L341.29 195.44L341.29 195.44L339.75 45.57L339.73 45.31L339.7 45.04L339.66 44.76L339.62 44.49L339.57 44.22L339.52 43.95L339.45 43.68L339.38 43.41L339.3 43.14L339.22 42.87L339.12 42.61L339.02 42.35L338.92 42.09L338.8 41.84L338.68 41.59L338.55 41.34L338.41 41.1L338.27 40.87L338.11 40.64L337.95 40.42L337.79 40.2L337.61 40L337.43 39.8L337.24 39.6L337.04 39.42L336.84 39.25L336.63 39.08L336.41 38.93L336.18 38.78L335.94 38.65L335.7 38.52L335.45 38.41L335.19 38.31L334.92 38.23L334.65 38.15L334.37 38.09L334.08 38.05L333.78 38.01L333.48 38L333.16 37.99L332.89 38L332.63 38.03Z" id="cyRYxoTd7"></path><path d="M307.35 407.08L307.08 380.94L366.3 380.08L366.56 406.22L307.35 407.08Z" id="alkNI9cTv"></path><path d="M315.6 506.04C319.82 510.91 325.25 513.66 331.03 514.14C331.14 524.57 331.99 608.03 332.1 618.46C332.15 623.07 335.33 626.75 339.22 626.7C341.16 626.67 342.91 625.72 344.17 624.19C345.43 622.66 346.19 620.56 346.17 618.26C346.06 607.83 345.21 524.37 345.1 513.94C350.87 513.29 356.24 510.39 360.35 505.39C364.95 499.79 367.44 492.43 367.37 484.65C367.35 483.23 367.28 476.14 367.15 463.36L307.93 464.22L308.16 485.5C309.97 495.55 312.46 502.39 315.6 506.04Z" id="d1eFlgznv"></path><path d="M306.91 364.26L306.65 338.14L365.86 337.28L366.13 363.41L306.91 364.26Z" id="bbJxQ6elb"></path><path d="M307.77 447.54L307.52 423.76L366.74 422.91L366.98 446.68L307.77 447.54Z" id="b3qRbdHabz"></path></defs><g><g><g><use xlink:href="#cyRYxoTd7" opacity="1" fill="#000000" fill-opacity="1"></use><g><use xlink:href="#cyRYxoTd7" opacity="1" fill-opacity="0" stroke="#000000" stroke-width="1" stroke-opacity="0"></use></g></g><g><use xlink:href="#alkNI9cTv" opacity="1" fill="#000000" fill-opacity="1"></use><g><use xlink:href="#alkNI9cTv" opacity="1" fill-opacity="0" stroke="#000000" stroke-width="1" stroke-opacity="0"></use></g></g><g><use xlink:href="#d1eFlgznv" opacity="1" fill="#000000" fill-opacity="1"></use><g><use xlink:href="#d1eFlgznv" opacity="1" fill-opacity="0" stroke="#000000" stroke-width="1" stroke-opacity="0"></use></g></g><g><use xlink:href="#bbJxQ6elb" opacity="1" fill="#000000" fill-opacity="1"></use><g><use xlink:href="#bbJxQ6elb" opacity="1" fill-opacity="0" stroke="#000000" stroke-width="1" stroke-opacity="0"></use></g></g><g><use xlink:href="#b3qRbdHabz" opacity="1" fill="#000000" fill-opacity="1"></use><g><use xlink:href="#b3qRbdHabz" opacity="1" fill-opacity="0" stroke="#000000" stroke-width="1" stroke-opacity="0"></use></g></g></g></g></svg>