<svg width="640" height="640" xmlns="http://www.w3.org/2000/svg" xmlns:xlink="http://www.w3.org/1999/xlink" preserveAspectRatio="xMidYMid meet">
 <defs>
  <path d="m334.37,21.34l0.68,0.05l0.68,0.09l0.66,0.11l0.66,0.13l0.66,0.16l0.64,0.19l0.64,0.21l0.62,0.23l0.62,0.26l0.61,0.28l0.6,0.3l0.59,0.33l0.58,0.35l0.57,0.37l0.55,0.39l0.55,0.41l0.53,0.43l0.53,0.45l0.51,0.47l0.49,0.5l0.49,0.51l0.47,0.53l0.46,0.54l0.44,0.57l0.43,0.58l0.41,0.6l0.4,0.62l0.39,0.63l0.37,0.65l0.35,0.66l0.34,0.68l0.32,0.69l0.3,0.71l0.29,0.72l0.26,0.74l0.25,0.74l0.24,0.77l0.21,0.77l59.28,19.16l0.23,0.08l0.22,0.08l0.22,0.1l0.21,0.1l0.21,0.11l0.21,0.12l0.2,0.12l0.2,0.13l0.2,0.14l0.19,0.15l0.18,0.16l0.18,0.16l0.18,0.16l0.17,0.18l0.17,0.17l0.16,0.19l0.15,0.19l0.15,0.2l0.15,0.2l0.14,0.21l0.13,0.21l0.13,0.22l0.12,0.22l0.12,0.22l0.11,0.24l0.11,0.23l0.09,0.24l0.1,0.24l0.08,0.25l0.08,0.25l0.07,0.25l0.07,0.26l0.05,0.26l0.06,0.27l0.04,0.26l0.04,0.27l0.03,0.27l0.02,0.27l0.01,0.28l0.01,0.28l0.88,85.63l0,0.17l0,0.16l-0.01,0.17l-0.01,0.17l-0.01,0.16l-0.01,0.17l-0.02,0.16l-0.02,0.17l-0.02,0.16l-0.02,0.16l-0.03,0.16l-0.03,0.16l-0.03,0.16l-0.04,0.16l-0.03,0.16l-0.04,0.15l-0.05,0.16l-0.04,0.15l-0.05,0.16l-0.05,0.15l-0.05,0.15l-0.06,0.15l-0.05,0.15l-0.06,0.14l-0.06,0.15l-0.07,0.14l-0.07,0.14l-0.07,0.14l-0.07,0.14l-0.07,0.14l-0.08,0.13l-0.07,0.14l-0.09,0.13l-0.08,0.13l-0.08,0.13l-0.09,0.12l-0.09,0.13l-0.09,0.12l-0.09,0.12l-0.1,0.12l-0.03,0.04l-0.03,0.04l-0.04,0.04l-0.03,0.03l-0.03,0.04l-0.04,0.04l-0.03,0.04l-0.04,0.04l-0.03,0.03l-0.03,0.04l-0.04,0.04l-0.03,0.03l-0.04,0.04l-0.04,0.04l-0.03,0.03l-0.04,0.04l-0.03,0.03l-0.04,0.04l-0.04,0.03l-0.03,0.03l-0.04,0.04l-0.04,0.03l-0.03,0.04l-0.04,0.03l-0.04,0.03l-0.04,0.04l-0.03,0.03l-0.04,0.03l-0.04,0.03l-0.04,0.03l-0.04,0.03l-0.04,0.04l-0.04,0.03l-0.04,0.03l-0.04,0.03l-0.04,0.03l-0.04,0.03l-0.04,0.03l-0.04,0.03l-0.04,0.03l-59.24,41.28l0.71,68.55l0.05,0.05l0.04,0.04l0.05,0.04l0.04,0.04l0.05,0.05l0.05,0.04l0.04,0.04l0.05,0.04l0.04,0.04l0.05,0.05l0.05,0.04l0.04,0.04l0.05,0.04l0.09,0.08l0.05,0.05l0.05,0.04l0.04,0.04l0.05,0.04l0.05,0.04l0.04,0.04l0.05,0.05l0.04,0.04l0.05,0.04l0.05,0.04l0.04,0.05l0.05,0.04l0.04,0.04l0.05,0.05l0.04,0.04l0.05,0.04l0.04,0.05l0.05,0.04l0.04,0.05l0.04,0.05l0.05,0.04l0.04,0.05l0.05,0.05l0.04,0.05l0.04,0.04l0.35,0.42l0.34,0.42l0.34,0.42l0.32,0.44l0.32,0.44l0.31,0.44l0.3,0.45l0.3,0.46l0.29,0.46l0.27,0.47l0.27,0.48l0.26,0.48l0.26,0.48l0.24,0.49l0.24,0.5l0.23,0.5l0.22,0.51l0.21,0.51l0.2,0.51l0.19,0.52l0.19,0.52l0.17,0.53l0.17,0.53l0.16,0.54l0.15,0.54l0.14,0.54l0.13,0.55l0.12,0.55l0.12,0.55l0.1,0.56l0.1,0.56l0.08,0.57l0.08,0.56l0.07,0.57l0.05,0.57l0.05,0.58l0.04,0.57l0.03,0.58l0.02,0.58l0.01,0.58l0.31,29.7l-59.22,0.86l-0.3,-29.7l0,-0.65l0.01,-0.64l0.03,-0.64l0.04,-0.64l0.05,-0.63l0.07,-0.64l0.07,-0.63l0.09,-0.62l0.11,-0.62l0.11,-0.62l0.13,-0.61l0.14,-0.61l0.15,-0.61l0.16,-0.59l0.17,-0.6l0.18,-0.59l0.2,-0.59l0.2,-0.57l0.22,-0.58l0.23,-0.57l0.23,-0.56l0.25,-0.56l0.25,-0.55l0.27,-0.54l0.28,-0.54l0.28,-0.53l0.29,-0.53l0.31,-0.51l0.31,-0.51l0.32,-0.51l0.33,-0.49l0.34,-0.49l0.34,-0.48l0.35,-0.47l0.37,-0.46l0.36,-0.46l0.38,-0.44l0.38,-0.44l0.4,-0.43l0.39,-0.42l-0.7,-68.9l-60.06,-39.55l-0.17,-0.11l-0.16,-0.12l-0.16,-0.12l-0.15,-0.12l-0.15,-0.13l-0.15,-0.14l-0.15,-0.14l-0.14,-0.14l-0.13,-0.14l-0.14,-0.15l-0.13,-0.16l-0.12,-0.16l-0.13,-0.16l-0.12,-0.16l-0.11,-0.17l-0.11,-0.18l-0.11,-0.17l-0.1,-0.18l-0.1,-0.18l-0.1,-0.19l-0.09,-0.19l-0.09,-0.19l-0.08,-0.19l-0.08,-0.2l-0.08,-0.19l-0.07,-0.2l-0.06,-0.21l-0.06,-0.2l-0.06,-0.21l-0.05,-0.21l-0.05,-0.21l-0.05,-0.22l-0.03,-0.21l-0.04,-0.22l-0.03,-0.21l-0.02,-0.22l-0.02,-0.23l-0.02,-0.22l-0.01,-0.22l0,-0.23l-0.88,-85.63l0,-0.28l0.01,-0.28l0.02,-0.27l0.02,-0.28l0.03,-0.27l0.04,-0.26l0.04,-0.27l0.06,-0.26l0.06,-0.26l0.06,-0.26l0.08,-0.25l0.08,-0.25l0.08,-0.25l0.09,-0.24l0.1,-0.24l0.11,-0.23l0.11,-0.23l0.12,-0.23l0.12,-0.22l0.13,-0.22l0.14,-0.21l0.14,-0.2l0.14,-0.2l0.16,-0.2l0.15,-0.19l0.17,-0.18l0.16,-0.18l0.18,-0.17l0.17,-0.17l0.19,-0.16l0.18,-0.15l0.19,-0.14l0.2,-0.14l0.2,-0.13l0.21,-0.13l0.2,-0.11l0.22,-0.11l0.21,-0.1l0.22,-0.09l0.23,-0.09l58.96,-20.89l0.21,-0.79l0.23,-0.78l0.24,-0.77l0.26,-0.75l0.28,-0.73l0.3,-0.72l0.31,-0.71l0.33,-0.69l0.35,-0.68l0.36,-0.66l0.38,-0.64l0.39,-0.63l0.4,-0.61l0.43,-0.59l0.43,-0.58l0.45,-0.56l0.46,-0.54l0.48,-0.52l0.49,-0.5l0.5,-0.48l0.51,-0.47l0.52,-0.44l0.54,-0.42l0.54,-0.41l0.56,-0.38l0.57,-0.36l0.57,-0.34l0.59,-0.31l0.59,-0.29l0.61,-0.28l0.61,-0.24l0.62,-0.23l0.63,-0.2l0.63,-0.17l0.64,-0.15l0.65,-0.13l0.66,-0.1l0.66,-0.08l0.67,-0.05l0.67,-0.02l0.69,0.01l0.69,0.03zm-1.74,16.69l-0.27,0.03l-0.25,0.05l-0.26,0.06l-0.25,0.07l-0.24,0.09l-0.24,0.09l-0.24,0.11l-0.23,0.11l-0.22,0.13l-0.22,0.14l-0.21,0.15l-0.21,0.15l-0.2,0.17l-0.2,0.18l-0.19,0.19l-0.18,0.2l-0.18,0.2l-0.17,0.22l-0.17,0.22l-0.16,0.23l-0.15,0.24l-0.15,0.25l-0.14,0.25l-0.13,0.27l-0.12,0.27l-0.12,0.28l-0.11,0.28l-0.1,0.29l-0.09,0.3l-0.09,0.3l-0.08,0.32l-0.07,0.31l-0.06,0.32l-0.06,0.33l-0.04,0.33l-0.04,0.34l-0.03,0.35l-0.02,0.34l1.54,149.43l0,0.01l0,0.01l0,0.01l0,0.01l0,0l0.69,66.74l0.04,0l0.04,-0.01l0.03,0l0.04,-0.01l0.04,0l0.04,-0.01l0.04,0l0.03,-0.01l0.04,-0.01l0.04,0l0.04,-0.01l0.04,-0.01l0.03,0l0.04,-0.01l0.04,-0.01l0.04,-0.01l0.07,-0.01l0.04,-0.01l0.04,0l0.04,-0.01l0.04,-0.01l0.03,0l0.04,-0.01l0.04,-0.01l0.04,0l0.03,-0.01l0.04,-0.01l0.04,0l0.04,-0.01l0.04,0l0.04,-0.01l0.03,0l0.04,0l0.04,-0.01l0.04,0l0.04,0l0.04,0l0.04,-0.01l0.03,0l9.96,-0.14l0.03,0l0.04,0l0.04,0l0.04,0l0.04,0l0.04,0l0.04,0.01l0.03,0l0.04,0l0.04,0.01l0.04,0l0.04,0l0.03,0.01l0.04,0l0.04,0.01l0.04,0l0.04,0.01l0.04,0l0.03,0.01l0.04,0l0.04,0.01l0.04,0l0.11,0.02l0.04,0l0.04,0.01l0.04,0l0.03,0.01l0.04,0l0.04,0.01l0.04,0l0.04,0.01l0.04,0l0.04,0.01l0.03,0l0.04,0l0.04,0.01l0.04,0l0.04,0l-0.69,-66.75l0,0l-1.54,-149.87l-0.02,-0.26l-0.03,-0.27l-0.04,-0.28l-0.04,-0.27l-0.05,-0.27l-0.05,-0.27l-0.07,-0.27l-0.07,-0.27l-0.08,-0.27l-0.08,-0.27l-0.1,-0.26l-0.1,-0.26l-0.1,-0.26l-0.12,-0.25l-0.12,-0.25l-0.13,-0.25l-0.14,-0.24l-0.14,-0.23l-0.16,-0.23l-0.16,-0.22l-0.16,-0.22l-0.18,-0.2l-0.18,-0.2l-0.19,-0.2l-0.2,-0.18l-0.2,-0.17l-0.21,-0.17l-0.22,-0.15l-0.23,-0.15l-0.24,-0.13l-0.24,-0.13l-0.25,-0.11l-0.26,-0.1l-0.27,-0.08l-0.27,-0.08l-0.28,-0.06l-0.29,-0.04l-0.3,-0.04l-0.3,-0.01l-0.32,-0.01l-0.27,0.01l-0.26,0.03z" id="cyRYxoTd7"/>
  <path d="m307.35,407.08l-0.27,-26.14l59.22,-0.86l0.26,26.14l-59.21,0.86z" id="alkNI9cTv"/>
  <path d="m315.6,506.04c4.22,4.87 9.65,7.62 15.43,8.1c0.11,10.43 0.96,93.89 1.07,104.32c0.05,4.61 3.23,8.29 7.12,8.24c1.94,-0.03 3.69,-0.98 4.95,-2.51c1.26,-1.53 2.02,-3.63 2,-5.93c-0.11,-10.43 -0.96,-93.89 -1.07,-104.32c5.77,-0.65 11.14,-3.55 15.25,-8.55c4.6,-5.6 7.09,-12.96 7.02,-20.74c-0.02,-1.42 -0.09,-8.51 -0.22,-21.29l-59.22,0.86l0.23,21.28c1.81,10.05 4.3,16.89 7.44,20.54z" id="d1eFlgznv"/>
  <path d="m306.91,364.26l-0.26,-26.12l59.21,-0.86l0.27,26.13l-59.22,0.85z" id="bbJxQ6elb"/>
  <path d="m307.77,447.54l-0.25,-23.78l59.22,-0.85l0.24,23.77l-59.21,0.86z" id="b3qRbdHabz"/>
 </defs>
 <g>
  <title>background</title>
  <rect x="-1" y="-1" width="642" height="642" id="canvas_background" fill="none"/>
 </g>
 <g>
  <title>Layer 1</title>
  <g id="svg_1">
   <g id="svg_2">
    <g id="svg_3">
     <use xlink:href="#cyRYxoTd7" fill="#ffffff" id="svg_4" y="-4.728462" x="-4.752558" stroke-width="0"/>
     <g id="svg_5">
      <use xlink:href="#cyRYxoTd7" fill-opacity="0" stroke="#000000" stroke-width="0" stroke-opacity="0" id="svg_6" y="-4.728462" x="-4.752558" fill="#ffffff"/>
     </g>
    </g>
    <g id="svg_7">
     <use xlink:href="#alkNI9cTv" fill="#ffffff" id="svg_8" y="-4.728462" x="-4.752558" stroke-width="0"/>
     <g id="svg_9">
      <use xlink:href="#alkNI9cTv" fill-opacity="0" stroke="#000000" stroke-width="0" stroke-opacity="0" id="svg_10" y="-4.728462" x="-4.752558" fill="#ffffff"/>
     </g>
    </g>
    <g id="svg_11">
     <use xlink:href="#d1eFlgznv" fill="#ffffff" id="svg_12" y="-4.728462" x="-4.752558" stroke-width="0"/>
     <g id="svg_13">
      <use xlink:href="#d1eFlgznv" fill-opacity="0" stroke="#000000" stroke-width="0" stroke-opacity="0" id="svg_14" y="-4.728462" x="-4.752558" fill="#ffffff"/>
     </g>
    </g>
    <g id="svg_15">
     <use xlink:href="#bbJxQ6elb" fill="#ffffff" id="svg_16" y="-4.728462" x="-4.752558" stroke-width="0"/>
     <g id="svg_17">
      <use xlink:href="#bbJxQ6elb" fill-opacity="0" stroke="#000000" stroke-width="0" stroke-opacity="0" id="svg_18" y="-4.728462" x="-4.752558" fill="#ffffff"/>
     </g>
    </g>
    <g id="svg_19">
     <use xlink:href="#b3qRbdHabz" fill="#ffffff" id="svg_20" y="-4.728462" x="-4.752558" stroke-width="0"/>
     <g id="svg_21">
      <use xlink:href="#b3qRbdHabz" fill-opacity="0" stroke="#000000" stroke-width="0" stroke-opacity="0" id="svg_22" y="-4.728462" x="-4.752558" fill="#ffffff"/>
     </g>
    </g>
   </g>
  </g>
  <path fill="none" stroke="#000" stroke-width="0" id="svg_23" d="m300.76923,81.95512c0.76922,0 3.29068,-0.03168 5.38461,-3.84615c3.41272,-6.21686 1.15481,-15.34363 0.76923,-20.76923c-0.05454,-0.7673 -0.54633,0.033 -0.76923,0.76923c-1.60742,5.30898 -5.4718,11.50985 -8.46152,20.76923c-3.96207,12.27087 -5.79455,21.70708 -8.46155,26.92308c-2.04196,3.99359 -2.3077,5.38461 -2.3077,4.61538c0,-4.61538 0.81793,-12.33672 0,-23.84616c-0.77118,-10.85119 -2.53299,-16.69777 -3.07691,-16.15384c-0.54394,0.54393 -2.23822,1.77543 -3.84616,4.61538c-1.56265,2.75995 -2.30768,3.84616 -3.07693,4.61539l0,0.76923"/>
  <path fill="none" stroke="#000" stroke-width="0" id="svg_24" d="m284.61539,83.49358c0,1.53846 -0.107,3.8263 -0.76923,7.69231c-0.91833,5.3612 -3.96045,12.26604 -6.15384,18.46154c-2.43542,6.87918 -7.48434,12.48373 -10.76925,16.15385c-3.62757,4.05295 -4.85236,7.62281 -7.6923,9.23076c-2.75995,1.56266 -4.61538,2.3077 -3.84616,2.3077c0.76923,0 -0.96023,-3.91307 0,-10.76924c1.5535,-11.09191 5.39063,-22.69663 10.76923,-32.30768c4.06338,-7.26084 7.76761,-13.21198 9.23077,-12.3077c0.65436,0.40441 -0.03244,1.52929 -1.53845,6.92308c-2.35861,8.44748 -4.45898,16.2255 -7.69232,23.07692c-2.93637,6.22213 -3.61035,10.4163 -4.61539,10c-0.71069,-0.29437 0.76923,-4.61538 2.30771,-10l0,-3.84615l0.76923,-1.53847"/>
  <defs>
   <path d="m334.37,21.34l0.68,0.05l0.68,0.09l0.66,0.11l0.66,0.13l0.66,0.16l0.64,0.19l0.64,0.21l0.62,0.23l0.62,0.26l0.61,0.28l0.6,0.3l0.59,0.33l0.58,0.35l0.57,0.37l0.55,0.39l0.55,0.41l0.53,0.43l0.53,0.45l0.51,0.47l0.49,0.5l0.49,0.51l0.47,0.53l0.46,0.54l0.44,0.57l0.43,0.58l0.41,0.6l0.4,0.62l0.39,0.63l0.37,0.65l0.35,0.66l0.34,0.68l0.32,0.69l0.3,0.71l0.29,0.72l0.26,0.74l0.25,0.74l0.24,0.77l0.21,0.77l59.28,19.16l0.23,0.08l0.22,0.08l0.22,0.1l0.21,0.1l0.21,0.11l0.21,0.12l0.2,0.12l0.2,0.13l0.2,0.14l0.19,0.15l0.18,0.16l0.18,0.16l0.18,0.16l0.17,0.18l0.17,0.17l0.16,0.19l0.15,0.19l0.15,0.2l0.15,0.2l0.14,0.21l0.13,0.21l0.13,0.22l0.12,0.22l0.12,0.22l0.11,0.24l0.11,0.23l0.09,0.24l0.1,0.24l0.08,0.25l0.08,0.25l0.07,0.25l0.07,0.26l0.05,0.26l0.06,0.27l0.04,0.26l0.04,0.27l0.03,0.27l0.02,0.27l0.01,0.28l0.01,0.28l0.88,85.63l0,0.17l0,0.16l-0.01,0.17l-0.01,0.17l-0.01,0.16l-0.01,0.17l-0.02,0.16l-0.02,0.17l-0.02,0.16l-0.02,0.16l-0.03,0.16l-0.03,0.16l-0.03,0.16l-0.04,0.16l-0.03,0.16l-0.04,0.15l-0.05,0.16l-0.04,0.15l-0.05,0.16l-0.05,0.15l-0.05,0.15l-0.06,0.15l-0.05,0.15l-0.06,0.14l-0.06,0.15l-0.07,0.14l-0.07,0.14l-0.07,0.14l-0.07,0.14l-0.07,0.14l-0.08,0.13l-0.07,0.14l-0.09,0.13l-0.08,0.13l-0.08,0.13l-0.09,0.12l-0.09,0.13l-0.09,0.12l-0.09,0.12l-0.1,0.12l-0.03,0.04l-0.03,0.04l-0.04,0.04l-0.03,0.03l-0.03,0.04l-0.04,0.04l-0.03,0.04l-0.04,0.04l-0.03,0.03l-0.03,0.04l-0.04,0.04l-0.03,0.03l-0.04,0.04l-0.04,0.04l-0.03,0.03l-0.04,0.04l-0.03,0.03l-0.04,0.04l-0.04,0.03l-0.03,0.03l-0.04,0.04l-0.04,0.03l-0.03,0.04l-0.04,0.03l-0.04,0.03l-0.04,0.04l-0.03,0.03l-0.04,0.03l-0.04,0.03l-0.04,0.03l-0.04,0.03l-0.04,0.04l-0.04,0.03l-0.04,0.03l-0.04,0.03l-0.04,0.03l-0.04,0.03l-0.04,0.03l-0.04,0.03l-0.04,0.03l-59.24,41.28l0.71,68.55l0.05,0.05l0.04,0.04l0.05,0.04l0.04,0.04l0.05,0.05l0.05,0.04l0.04,0.04l0.05,0.04l0.04,0.04l0.05,0.05l0.05,0.04l0.04,0.04l0.05,0.04l0.09,0.08l0.05,0.05l0.05,0.04l0.04,0.04l0.05,0.04l0.05,0.04l0.04,0.04l0.05,0.05l0.04,0.04l0.05,0.04l0.05,0.04l0.04,0.05l0.05,0.04l0.04,0.04l0.05,0.05l0.04,0.04l0.05,0.04l0.04,0.05l0.05,0.04l0.04,0.05l0.04,0.05l0.05,0.04l0.04,0.05l0.05,0.05l0.04,0.05l0.04,0.04l0.35,0.42l0.34,0.42l0.34,0.42l0.32,0.44l0.32,0.44l0.31,0.44l0.3,0.45l0.3,0.46l0.29,0.46l0.27,0.47l0.27,0.48l0.26,0.48l0.26,0.48l0.24,0.49l0.24,0.5l0.23,0.5l0.22,0.51l0.21,0.51l0.2,0.51l0.19,0.52l0.19,0.52l0.17,0.53l0.17,0.53l0.16,0.54l0.15,0.54l0.14,0.54l0.13,0.55l0.12,0.55l0.12,0.55l0.1,0.56l0.1,0.56l0.08,0.57l0.08,0.56l0.07,0.57l0.05,0.57l0.05,0.58l0.04,0.57l0.03,0.58l0.02,0.58l0.01,0.58l0.31,29.7l-59.22,0.86l-0.3,-29.7l0,-0.65l0.01,-0.64l0.03,-0.64l0.04,-0.64l0.05,-0.63l0.07,-0.64l0.07,-0.63l0.09,-0.62l0.11,-0.62l0.11,-0.62l0.13,-0.61l0.14,-0.61l0.15,-0.61l0.16,-0.59l0.17,-0.6l0.18,-0.59l0.2,-0.59l0.2,-0.57l0.22,-0.58l0.23,-0.57l0.23,-0.56l0.25,-0.56l0.25,-0.55l0.27,-0.54l0.28,-0.54l0.28,-0.53l0.29,-0.53l0.31,-0.51l0.31,-0.51l0.32,-0.51l0.33,-0.49l0.34,-0.49l0.34,-0.48l0.35,-0.47l0.37,-0.46l0.36,-0.46l0.38,-0.44l0.38,-0.44l0.4,-0.43l0.39,-0.42l-0.7,-68.9l-60.06,-39.55l-0.17,-0.11l-0.16,-0.12l-0.16,-0.12l-0.15,-0.12l-0.15,-0.13l-0.15,-0.14l-0.15,-0.14l-0.14,-0.14l-0.13,-0.14l-0.14,-0.15l-0.13,-0.16l-0.12,-0.16l-0.13,-0.16l-0.12,-0.16l-0.11,-0.17l-0.11,-0.18l-0.11,-0.17l-0.1,-0.18l-0.1,-0.18l-0.1,-0.19l-0.09,-0.19l-0.09,-0.19l-0.08,-0.19l-0.08,-0.2l-0.08,-0.19l-0.07,-0.2l-0.06,-0.21l-0.06,-0.2l-0.06,-0.21l-0.05,-0.21l-0.05,-0.21l-0.05,-0.22l-0.03,-0.21l-0.04,-0.22l-0.03,-0.21l-0.02,-0.22l-0.02,-0.23l-0.02,-0.22l-0.01,-0.22l0,-0.23l-0.88,-85.63l0,-0.28l0.01,-0.28l0.02,-0.27l0.02,-0.28l0.03,-0.27l0.04,-0.26l0.04,-0.27l0.06,-0.26l0.06,-0.26l0.06,-0.26l0.08,-0.25l0.08,-0.25l0.08,-0.25l0.09,-0.24l0.1,-0.24l0.11,-0.23l0.11,-0.23l0.12,-0.23l0.12,-0.22l0.13,-0.22l0.14,-0.21l0.14,-0.2l0.14,-0.2l0.16,-0.2l0.15,-0.19l0.17,-0.18l0.16,-0.18l0.18,-0.17l0.17,-0.17l0.19,-0.16l0.18,-0.15l0.19,-0.14l0.2,-0.14l0.2,-0.13l0.21,-0.13l0.2,-0.11l0.22,-0.11l0.21,-0.1l0.22,-0.09l0.23,-0.09l58.96,-20.89l0.21,-0.79l0.23,-0.78l0.24,-0.77l0.26,-0.75l0.28,-0.73l0.3,-0.72l0.31,-0.71l0.33,-0.69l0.35,-0.68l0.36,-0.66l0.38,-0.64l0.39,-0.63l0.4,-0.61l0.43,-0.59l0.43,-0.58l0.45,-0.56l0.46,-0.54l0.48,-0.52l0.49,-0.5l0.5,-0.48l0.51,-0.47l0.52,-0.44l0.54,-0.42l0.54,-0.41l0.56,-0.38l0.57,-0.36l0.57,-0.34l0.59,-0.31l0.59,-0.29l0.61,-0.28l0.61,-0.24l0.62,-0.23l0.63,-0.2l0.63,-0.17l0.64,-0.15l0.65,-0.13l0.66,-0.1l0.66,-0.08l0.67,-0.05l0.67,-0.02l0.69,0.01l0.69,0.03zm-1.74,16.69l-0.27,0.03l-0.25,0.05l-0.26,0.06l-0.25,0.07l-0.24,0.09l-0.24,0.09l-0.24,0.11l-0.23,0.11l-0.22,0.13l-0.22,0.14l-0.21,0.15l-0.21,0.15l-0.2,0.17l-0.2,0.18l-0.19,0.19l-0.18,0.2l-0.18,0.2l-0.17,0.22l-0.17,0.22l-0.16,0.23l-0.15,0.24l-0.15,0.25l-0.14,0.25l-0.13,0.27l-0.12,0.27l-0.12,0.28l-0.11,0.28l-0.1,0.29l-0.09,0.3l-0.09,0.3l-0.08,0.32l-0.07,0.31l-0.06,0.32l-0.06,0.33l-0.04,0.33l-0.04,0.34l-0.03,0.35l-0.02,0.34l1.54,149.43l0,0.01l0,0.01l0,0.01l0,0.01l0,0l0.69,66.74l0.04,0l0.04,-0.01l0.03,0l0.04,-0.01l0.04,0l0.04,-0.01l0.04,0l0.03,-0.01l0.04,-0.01l0.04,0l0.04,-0.01l0.04,-0.01l0.03,0l0.04,-0.01l0.04,-0.01l0.04,-0.01l0.07,-0.01l0.04,-0.01l0.04,0l0.04,-0.01l0.04,-0.01l0.03,0l0.04,-0.01l0.04,-0.01l0.04,0l0.03,-0.01l0.04,-0.01l0.04,0l0.04,-0.01l0.04,0l0.04,-0.01l0.03,0l0.04,0l0.04,-0.01l0.04,0l0.04,0l0.04,0l0.04,-0.01l0.03,0l9.96,-0.14l0.03,0l0.04,0l0.04,0l0.04,0l0.04,0l0.04,0l0.04,0.01l0.03,0l0.04,0l0.04,0.01l0.04,0l0.04,0l0.03,0.01l0.04,0l0.04,0.01l0.04,0l0.04,0.01l0.04,0l0.03,0.01l0.04,0l0.04,0.01l0.04,0l0.11,0.02l0.04,0l0.04,0.01l0.04,0l0.03,0.01l0.04,0l0.04,0.01l0.04,0l0.04,0.01l0.04,0l0.04,0.01l0.03,0l0.04,0l0.04,0.01l0.04,0l0.04,0l-0.69,-66.75l0,0l-1.54,-149.87l-0.02,-0.26l-0.03,-0.27l-0.04,-0.28l-0.04,-0.27l-0.05,-0.27l-0.05,-0.27l-0.07,-0.27l-0.07,-0.27l-0.08,-0.27l-0.08,-0.27l-0.1,-0.26l-0.1,-0.26l-0.1,-0.26l-0.12,-0.25l-0.12,-0.25l-0.13,-0.25l-0.14,-0.24l-0.14,-0.23l-0.16,-0.23l-0.16,-0.22l-0.16,-0.22l-0.18,-0.2l-0.18,-0.2l-0.19,-0.2l-0.2,-0.18l-0.2,-0.17l-0.21,-0.17l-0.22,-0.15l-0.23,-0.15l-0.24,-0.13l-0.24,-0.13l-0.25,-0.11l-0.26,-0.1l-0.27,-0.08l-0.27,-0.08l-0.28,-0.06l-0.29,-0.04l-0.3,-0.04l-0.3,-0.01l-0.32,-0.01l-0.27,0.01l-0.26,0.03z" id="svg_36"/>
   <path d="m307.35,407.08l-0.27,-26.14l59.22,-0.86l0.26,26.14l-59.21,0.86z" id="svg_35"/>
   <path d="m315.6,506.04c4.22,4.87 9.65,7.62 15.43,8.1c0.11,10.43 0.96,93.89 1.07,104.32c0.05,4.61 3.23,8.29 7.12,8.24c1.94,-0.03 3.69,-0.98 4.95,-2.51c1.26,-1.53 2.02,-3.63 2,-5.93c-0.11,-10.43 -0.96,-93.89 -1.07,-104.32c5.77,-0.65 11.14,-3.55 15.25,-8.55c4.6,-5.6 7.09,-12.96 7.02,-20.74c-0.02,-1.42 -0.09,-8.51 -0.22,-21.29l-59.22,0.86l0.23,21.28c1.81,10.05 4.3,16.89 7.44,20.54z" id="svg_34"/>
   <path d="m306.91,364.26l-0.26,-26.12l59.21,-0.86l0.27,26.13l-59.22,0.85z" id="svg_33"/>
   <path d="m307.77,447.54l-0.25,-23.78l59.22,-0.85l0.24,23.77l-59.21,0.86z" id="svg_32"/>
  </defs>
 </g>
</svg>